<!--?xml version="1.0" standalone="no"?-->
              <svg id="sw-js-blob-svg" viewBox="0 0 100 100" xmlns="http://www.w3.org/2000/svg" version="1.1">
                    <defs> 
                        <linearGradient id="sw-gradient" x1="0" x2="1" y1="1" y2="0">
                            <stop id="stop1" stop-color="rgba(255, 255, 255, 1)" offset="0%"></stop>
                            <stop id="stop2" stop-color="rgba(249.379, 249.379, 249.379, 1)" offset="100%"></stop>
                        </linearGradient>
                    </defs>
                <path fill="url(#sw-gradient)" d="M22.5,-29.9C30.2,-25.4,38.1,-20.2,41.3,-12.8C44.5,-5.5,43,4,39.1,11.8C35.3,19.6,29.2,25.6,22.3,31.7C15.4,37.7,7.7,43.6,-1,45C-9.7,46.4,-19.5,43.3,-25.7,37.1C-31.9,30.8,-34.6,21.5,-35.8,12.8C-37.1,4.1,-36.8,-3.9,-34.7,-11.5C-32.5,-19.1,-28.5,-26.4,-22.4,-31.4C-16.3,-36.4,-8.2,-39.1,-0.4,-38.6C7.4,-38.2,14.9,-34.4,22.5,-29.9Z" width="100%" height="100%" transform="translate(50 50)" stroke-width="0" style="transition: 0.3s;"></path>
              </svg>