<svg id="Layer_2" data-name="Layer 2" xmlns="http://www.w3.org/2000/svg" viewBox="0 0 603.391 797.105" style="width: 100%; height: 100%;">
  <g id="Layer_2-2" data-name="Layer 2">
    <g>
      <g>
        <circle cx="301.696" cy="495.41" r="301.696" fill="#0077B6"></circle>
        <circle cx="301.696" cy="495.41" r="301.696" fill="#fff" opacity=".86"></circle>
        <polygon points="142.87 500.05 205.759 589.561 100.609 607.054 65.391 559.532 142.87 500.05" fill="#0077B6" opacity=".1"></polygon>
        <polygon points="547.87 362.401 505.609 327.214 458.652 393.664 473.341 410.659 547.87 362.401" fill="#0077B6" opacity=".1"></polygon>
        <polygon points="115.87 393.664 154.732 364.653 187.509 417.913 149.689 437.779 115.87 393.664" fill="#0077B6" opacity=".1"></polygon>
        <polygon points="345.223 715.402 389.945 679.01 417.565 715.402 367.76 749.445 345.223 715.402" fill="#0077B6" opacity=".1"></polygon>
        <polygon points="166.175 452.445 206.759 422.793 239.13 465.358 221.522 483.343 247.749 517.176 272 500.05 300.257 535.793 247.749 574.532 166.175 452.445" fill="#0077B6" opacity=".1"></polygon>
        <path d="m602.947,511.888l-151.14,102.33,69.62,87.92c-2.07,2.21-4.18,4.38-6.32,6.52l-70.65-89.22-122.76,91.51,54.37,76.92c-3.13.8-6.28,1.54-9.45,2.23l-54.8-77.54-76.89-107.22-134.61,27.12,10.77,96.81c-3.4-2.77-6.73-5.61-10-8.53l-10.01-89.99L1.677,527.328c-.54-5.02-.94-10.08-1.22-15.17l96.62,111.78,132.09-26.62L43.777,338.808c1.68-2.77,3.41-5.51,5.18-8.22l189.89,264.78,1.04-.21,138.52-97.47-98.12-127.38,14.17-176.5c2.41-.06,4.82-.09,7.24-.09.6,0,1.2,0,1.8.01l-13.96,173.84,96.24,124.93,186.29-131.08c1.36,2.72,2.67,5.47,3.94,8.24l-331.67,233.37,72.14,100.59,129.61-96.62.12.15,157.13-106.39c-.06,3.73-.19,7.43-.39,11.13Z" fill="#fff"></path>
      </g>
      <g>
        <path d="m301.688,12.823c-94.962,0-171.638,76.755-171.638,171.428,0,29.769,11.304,63.296,20.941,82.181,31.648,62.017,148.789,235.426,148.789,235.426.866,1.449,2.964,1.449,3.83,0,0,0,117.141-173.409,148.789-235.426,9.637-18.885,20.941-52.412,20.941-82.181,0-94.676-76.677-171.428-171.638-171.428h-.015Z" fill="#0077B6"></path>
        <path d="m301.688,12.823c-94.962,0-171.638,76.755-171.638,171.428,0,29.769,11.304,63.296,20.941,82.181,31.648,62.017,148.789,235.426,148.789,235.426.866,1.449,2.964,1.449,3.83,0,0,0,117.141-173.409,148.789-235.426,9.637-18.885,20.941-52.412,20.941-82.181,0-94.676-76.677-171.428-171.638-171.428h-.015Z" fill="#fff" opacity=".12"></path>
        <path d="m297.997,39.707c1.232-.031,2.452,0,3.691,0,79.992,0,144.706,65.402,143.59,145.651-1.076,77.346-64.2,140.47-141.546,141.546-80.248,1.116-145.649-63.6-145.649-143.59,0-78.072,62.316-141.639,139.913-143.606Z" fill="#fff"></path>
        <g>
          <path d="m345.223,2.276s41.545.509,27.221,57.762l-3.901.19-7.919.386-15.401-58.338Z" fill="#0c0c0c"></path>
          <g>
            <path id="sk" d="m298.834,120.107c.195-.018.959,35.694,42.47,34.193,28.737-1.035,40.133-31.039,40.79-31.014-3.064-.776-8.229-1.933-9.573-2.719-4.418-2.599-9.903-5.339-11.017-14.157-.642-5.083,1.782-30.864,1.543-35.99l-44.364,8.111c.196,10.815,3.527,36-11.721,39.842-2.537.635-5.265,1.204-8.127,1.733Z" fill="#ff9e85"></path>
            <path id="sh" d="m316.9,108.519c.7-1.964,1.138-3.679,1.588-6.775.805-5.536.69-10.659.329-15.889,8.931-.838,17.607-4.244,24.722-9.707.7,3.048,4.68,16.401,3.325,19.22-2.561,5.327-13.952,13.772-29.964,13.151Z" fill="#0c0c0c" opacity=".52"></path>
            <path d="m326.971,102.21c17.391-1.241,38.371-11.832,39.1-35.395l.658-21.261c.729-23.562-11.056-43.046-33.241-43.733h0c-22.185-.686-39.359,17.902-40.087,41.464l-.291,9.412c-.06,1.938.036,5.421.529,9.676.984,8.49,2.514,21.399,8.104,30.214,5.277,8.322,14.119,10.414,25.229,9.622Z" fill="#ff9e85"></path>
            <g>
              <circle id="e1_eye" cx="302.254" cy="53.269" r="2.5" fill="#0a0a0a"></circle>
              <g id="e1_n">
                <path d="m315.27,71.42c.506,0,.939-.382.993-.896.058-.549-.341-1.041-.891-1.099l-5.296-.554,3.26-10.578c.162-.528-.134-1.087-.662-1.25-.527-.162-1.087.133-1.25.661l-3.617,11.741c-.088.286-.043.596.122.846s.433.412.73.443l6.506.68c.035.004.07.005.104.005Z" fill="#0a0a0a"></path>
              </g>
              <path id="e1_eb" d="m324.011,44.625c-.24.745,2.47,1.859,6.28,2.88s7.259,1.757,7.518.818c.327-1.186-2.512-3.98-6.322-5.001-3.81-1.021-7.098.132-7.476,1.304Z" fill="#0a0a0a"></path>
              <circle id="e1_eye-2" data-name="e1_eye" cx="327.216" cy="53.792" r="2.5" fill="#0a0a0a"></circle>
              <path id="e1_eb-2" data-name="e1_eb" d="m293.755,46.839c.083.778,3.011.697,6.908.084,3.897-.613,7.348-1.339,7.203-2.303-.182-1.217-3.505-2.705-7.402-2.092-3.897.613-6.84,3.087-6.71,4.311Z" fill="#0a0a0a"></path>
            </g>
            <path d="m364.471,73.95c6.742.209,12.431-6.835,12.639-13.577.209-6.742-5.142-10.629-11.884-10.838l-3.614,4.41-2.938,19.826,5.797.179Z" fill="#ff9e85"></path>
            <path d="m294.541,69.488s3.599,4.751,10.075,3.936c4.008-.505,6.669,1.14,10.016.81,2.81-.277,3.297-1.574,8.091-1.858,18.512-1.096,32.403-2.263,33.305-25.493l11.78-10.463s5.265,64.371-29.552,72.928c-21.394,5.258-41.461,3.334-44.041-16.76-2.096-16.326.326-23.099.326-23.099Z" fill="#0c0c0c"></path>
            <path d="m310.706,78.861c-.361.01-.598.366-.485.708,1.468,4.446,5.95,6.685,10.621,5.535s7.825-5.244,7.117-9.849c-.057-.368-.456-.57-.783-.394-1.045.561-3.508,1.673-8.248,2.804-4.071.971-6.971,1.163-8.221,1.197Z" fill="#fff"></path>
          </g>
          <path d="m357.959,62.992s-1.67-33.39-11.745-35.633c-6.71-1.494-23.216,7.761-38.291,4.601-6.595-1.383-12.908.141-13.604,3.255-.276,1.233-5.495-9.706,5.115-23.017,8.447-10.598,35.917-13.579,48.137-9.831,33.839,10.378,19.018,48.663,19.018,48.663l-1.726,11.47-6.904.493Z" fill="#0c0c0c"></path>
          <circle cx="373.337" cy="18.034" r="18.034" fill="#0c0c0c"></circle>
          <g>
            <path d="m204.569,121.076l1.186-29.363c.109-2.703-2.112-4.96-4.875-4.832-2.45.113-4.328,2.247-4.427,4.698l-.254,6.297-8.289-20.167c-.882-2.258-3.41-4.465-5.878-3.308-2.057.804-3.214,2.911-2.905,5.006-.023.006-.047.005-.068.016-.017.007-.029.021-.045.03l-1.361-3.482c-1.05-2.685-4.32-3.845-6.886-2.197-1.879,1.207-2.525,3.662-1.713,5.742l.579,1.482c-.035.037-.064.079-.083.125-1.25-1.827-3.686-2.575-5.812-1.581-2.254,1.054-3.177,3.79-2.271,6.107l1.438,3.681c-.113-.072-.254-.096-.391-.044-.079.033-.136.09-.182.155-1.512-1.267-3.772-1.529-5.639-.269-1.816,1.226-2.413,3.638-1.616,5.678l12.136,31.056c3.473,8.888,11.992,14.779,21.533,14.892h0c8.362.099,15.286-6.472,15.623-14.828l.198-4.893Z" fill="#ff9e85"></path>
            <g fill="none" opacity=".2">
              <path d="m187.233,99.407c-.217.083-.462-.022-.55-.238l-7.858-19.189c-.09-.219.015-.47.235-.56.199-.101.47.015.56.235l7.858,19.189c.09.219-.015.47-.235.56l-.009.004Z" fill="#0c0c0c"></path>
            </g>
            <g fill="none" opacity=".2">
              <path d="m178.866,103.106c-.217.083-.462-.022-.55-.238l-8.77-21.415c-.09-.219.015-.47.235-.56.201-.081.47.016.56.235l8.77,21.415c.09.219-.015.47-.235.56l-.009.004Z" fill="#0c0c0c"></path>
            </g>
            <g fill="none" opacity=".2">
              <path d="m169.826,107.165c-.217.083-.462-.022-.55-.238l-6.996-17.082c-.09-.219.015-.47.235-.56.223-.086.47.016.56.235l6.996,17.082c.09.219-.015.47-.235.56l-.009.004Z" fill="#0c0c0c"></path>
            </g>
          </g>
          <path d="m437.698,159.941c-3.936-11.19-7.115-16.769-11.158-21.182-5.534-6.04-13.857-11.988-29.291-14.686-9.429-1.64-23.641-3.116-23.641-3.116,0,0,0,.027-.007.075-.164,1.483-3.095,24.297-30.992,24.529-38.433.321-35.673-26.08-35.755-27.159.007-.021.007-.034,0-.034-11.923-.465-41.651-.731-53.622,10.98-1.326,1.291-2.467,2.603-3.457,3.936l-.164-.102-27.439,42.191-6.853-56.02-10.748,1.722-34.88,5.589-2.016.321-12.428,1.995,4.332,33.575,9.928,76.975c9.723,22.855,25.212,42.669,44.63,57.619,8.097-11.431,21.495-31.15,35.413-51.818.219-.328.437-.656.663-.984v.007c0,.226.007.458.014.69.034,1.476.075,3.15.109,4.995.328,16.938.663,47.985.936,67.779,16.282,6.108,33.978,9.347,52.46,9.087,36.335-.499,69.542-14.71,94.638-37.647.137-.116.266-.239.396-.369.26-.232.519-.471.772-.711,13.255-12.374,24.18-27.214,32.031-43.769,8.418-17.751,13.289-37.463,13.699-58.22v-.007l-7.57-26.239Z" fill="#0cbc8b"></path>
          <path d="m399.537,288.176c-.253.239-.512.478-.772.711-.13.13-.26.253-.396.369l-7.413-37.722-.007-.041-10.597-53.916,1.339-.348,17.847,90.948Z" fill="#0c0c0c"></path>
          <path d="m250.396,250.043c-.355-.014-.647-.298-.662-.659l-1.371-30.144c-.018-.382.277-.704.659-.722.375-.023.704.276.722.659l1.371,30.144c.018.382-.277.704-.659.722-.02,0-.039.001-.059,0Z" fill="#0c0c0c"></path>
        </g>
      </g>
    </g>
  </g>
</svg>